# xmcd
#
# Track frame offsets:
#	150
#	17497
#	34392
#	53302
#	71692
#	89969
#	110965
#	128231
#	146505
#	172767
#	196638
#	218354
#	232651
#
# Disc length: 3309 seconds
#
# Revision: 0
# Processed by: cddbd v1.5.2PL0 Copyright (c) Steve Scherf et al.
# Submitted via: dBpowerAMP V4.0
#
DISCID=a80ceb0d
DTITLE=Adele - 21
DYEAR=2011
DGENRE=Blues
TTITLE0=Rolling In The Deep
TTITLE1=Rumour Has It
TTITLE2=Turning Tables
TTITLE3=Don't You Remember
TTITLE4=Set Fire To The Rain
TTITLE5=He Won't Let Go
TTITLE6=Take It All
TTITLE7=I'll Be Waiting
TTITLE8=One And Only
TTITLE9=Love Song
TTITLE10=Someone Like You
TTITLE11=If It Hadn't Been For You
TTITLE12=Hiding My Heart
EXTD=
EXTT0=
EXTT1=
EXTT2=
EXTT3=
EXTT4=
EXTT5=
EXTT6=
EXTT7=
EXTT8=
EXTT9=
EXTT10=
EXTT11=
EXTT12=
PLAYORDER=
